<svg width="1631" height="2181" xmlns="http://www.w3.org/2000/svg" xmlns:xlink="http://www.w3.org/1999/xlink" xml:space="preserve" overflow="hidden"><defs><clipPath id="clip0"><rect x="2104" y="339" width="1631" height="2181"/></clipPath></defs><g clip-path="url(#clip0)" transform="translate(-2104 -339)"><path d="M2222.85 689.658 2211.68 696.507 2209 697.507ZM2911.71 339C2932.07 339 2951.96 341.062 2971.16 344.99L3016.68 359.112 3048.21 376.773 3055.52 381.698 3055.52 380.868 3583.47 676.627 3583.23 676.78 3585.6 677.822 3621.83 698.119 3655.3 726.615C3668.88 740.735 3681.26 756.425 3692.15 773.625 3713.92 808.024 3727.69 845.207 3733.94 882.989L3732.92 917.911 3734 917.23 3734 1414 2471.42 685.712C2413.19 652.119 2346.84 645.298 2286.65 661.424L2256.48 676.142 2227.83 686.838 2654.46 445.136 2658.02 444.032 2809.33 358.308 2852.26 344.99C2871.46 341.062 2891.34 339 2911.71 339Z" fill="#00B0F0" fill-rule="evenodd"/><path d="M2138.76 771.656 2138.76 771.656 2138.76 771.657ZM2332.67 650.449C2379.45 647.136 2427.69 657.278 2471.37 682.487L2812.58 879.424 2757.84 890.474C2693.67 917.617 2648.64 981.161 2648.64 1055.22L2648.64 1337.93 2650.74 1348.3 2227.93 1104.27C2140.57 1053.85 2096.28 957.48 2107.95 863.311L2138.76 771.656 2202.71 699.134C2240.56 670.527 2285.89 653.761 2332.67 650.449Z" fill="#7F7F7F" fill-rule="evenodd"/><path d="M3699.23 2087.41 3699.23 2087.42 3699.23 2087.42ZM3187.25 1510.77 3610.06 1754.8C3697.41 1805.22 3741.71 1901.59 3730.04 1995.76L3699.23 2087.42 3635.28 2159.94C3559.58 2217.15 3453.97 2227 3366.62 2176.59L3025.41 1979.65 3080.14 1968.6C3144.32 1941.46 3189.35 1877.91 3189.35 1803.85L3189.35 1521.14Z" fill="#7F7F7F" fill-rule="evenodd"/><path d="M3615.15 2169.34 3626.32 2162.49 3629 2161.49ZM2926.29 2520C2905.93 2520 2886.04 2517.94 2866.84 2514.01L2821.32 2499.89 2789.79 2482.23 2782.48 2477.3 2782.48 2478.13 2254.53 2182.37 2254.77 2182.22 2252.4 2181.18 2216.17 2160.88 2182.71 2132.38C2169.12 2118.26 2156.74 2102.57 2145.86 2085.38 2124.08 2050.98 2110.31 2013.79 2104.06 1976.01L2105.08 1941.09 2104 1941.77 2104 1445 3366.58 2173.29C3424.81 2206.88 3491.16 2213.7 3551.35 2197.58L3581.52 2182.86 3610.17 2172.16 3183.54 2413.86 3179.98 2414.97 3028.67 2500.69 2985.74 2514.01C2966.54 2517.94 2946.66 2520 2926.29 2520Z" fill="#00B0F0" fill-rule="evenodd"/><path d="M2918 342 2972.07 347.451 3017.6 361.58 3049.13 379.25 3056.44 384.177 3056.44 383.347 3584.45 679.255 3584.21 679.408 3586.59 680.451 3622.82 700.758 3656.29 729.268C3669.87 743.396 3682.25 759.094 3693.14 776.302 3714.92 810.718 3728.69 847.919 3734.94 885.722L3733.92 920.661 3735 919.979 3735 1417 2918 945.547Z" fill="#61CBF4" fill-rule="evenodd"/><path d="M3700.36 2082.83 3700.35 2082.83 3700.35 2082.83ZM3188.38 1506.18 3611.18 1750.22C3698.54 1800.64 3742.83 1897.01 3731.16 1991.18L3700.35 2082.83 3636.4 2155.35C3560.7 2212.57 3455.1 2222.42 3367.74 2172L3026.53 1975.06 3081.27 1964.01C3145.44 1936.87 3190.47 1873.33 3190.47 1799.27L3190.47 1516.56Z" fill="#BFBFBF" fill-rule="evenodd"/><path d="M3630 2161.52 3616.15 2169.37 3627.32 2162.52ZM2918 1914 3367.58 2173.31C3425.81 2206.9 3492.16 2213.72 3552.35 2197.6L3582.52 2182.88 3611.17 2172.19 3184.55 2413.87 3180.99 2414.98 3029.68 2500.69 2986.75 2514.01C2967.55 2517.94 2947.66 2520 2927.3 2520L2918 2519.06Z" fill="#61CBF4" fill-rule="evenodd"/></g></svg>